<?xml version="1.0" encoding="UTF-8"?> <svg xmlns="http://www.w3.org/2000/svg" id="Layer_1" data-name="Layer 1" width="1600" height="1600" viewBox="0 0 1600 1600"><defs><style>.cls-1{fill:none;stroke:#7251a0;stroke-width:30px;}.cls-1,.cls-4,.cls-5,.cls-6,.cls-7,.cls-8{stroke-miterlimit:10;}.cls-2{fill:#e66ea9;}.cls-3,.cls-7,.cls-8{fill:#7251a0;}.cls-4{fill:#efa41f;}.cls-4,.cls-5,.cls-6,.cls-8{stroke:#fff;}.cls-4,.cls-5{stroke-width:16.5577px;}.cls-5{fill:#00a579;}.cls-6{fill:#fff;stroke-width:14.9988px;}.cls-7{stroke:#e66ea9;}.cls-7,.cls-8{stroke-width:20px;}</style></defs><path class="cls-1" d="M1085.6523,661.4268c8.875-17.751,19.84-28.7149,40.7237-28.7149,29.7588,0,43.333,17.2285,43.333,27.6709,0,5.2207-3.1319,7.8311-7.8311,7.8311-12.53,0-20.3613,1.5664-30.8037,14.0966C1107.58,711.0254,1062.68,838.94,1049.6279,963.72c-.5224,10.9639-6.2656,15.1407-13.5752,15.1407H984.3662c-5.7432,0-9.3984-2.61-9.92-11.4864-4.1768-65.7842.5215-133.1338-6.7871-189.52h-2.61c-17.23,75.7041-48.5556,223.457-152.4521,223.457-46.9883,0-75.1817-31.8476-75.1817-68.3945,0-38.1133,39.1573-66.8281,58.9971-66.8281,5.2207,0,7.3086,2.61,7.3086,6.2656,0,6.2647-3.6543,10.4414-3.6543,22.4492,0,13.0528,8.876,26.627,30.2813,26.627,46.9882,0,107.5517-127.3906,107.5517-219.8018,0-28.7148-12.53-39.6787-31.3252-39.6787-28.1933,0-59.5195,45.9444-59.5195,88.2334,0,17.23,9.92,25.0606,20.8838,25.0606,6.7871,0,13.0527-4.1768,16.707-4.1768s5.2217,2.0889,5.2217,5.7432c0,15.6631-28.1934,53.2539-66.3067,53.2539-31.3251,0-54.82-22.9727-54.82-59.5186,0-88.7568,86.1465-137.833,150.3633-137.833,75.7041,0,97.6319,39.6787,110.1621,95.543,5.7432,25.06,8.3535,68.917,9.3985,100.2422C1054.3262,751.2266,1066.335,699.54,1085.6523,661.4268Z"></path><path class="cls-1" d="M1245.4092,921.43c4.1767-3.6543,7.832-6.2647,10.9638-6.2647a6.0181,6.0181,0,0,1,6.2657,6.2647c0,5.2207-2.61,9.3984-10.4414,17.7519-17.23,18.2725-42.8125,43.8555-93.4551,43.8555-49.0772,0-83.5352-21.9277-83.5352-72.0488,0-50.6436,40.7227-96.0654,110.1621-96.0654,35.502,0,51.6866,15.663,51.6866,38.1123,0,29.76-34.9795,58.4746-87.1895,62.6513,0,18.2735,14.0967,32.37,39.1572,32.37C1215.65,948.0566,1233.9238,930.8281,1245.4092,921.43Zm-46.4658-72.0488c0-7.8311-4.1768-12.0079-12.53-12.0079-15.6631,0-36.5469,25.5821-36.5469,56.3858C1179.626,888.0156,1198.9434,861.9111,1198.9434,849.3809Z"></path><path class="cls-1" d="M1314.3213,940.7471c-14.0967,16.1855-35.5029,40.7236-52.7315,40.7236-19.3173,0-40.2011-21.9277-40.2011-31.3252,0-14.6191,19.84-35.5029,28.7148-35.5029,10.4424,0,14.0967,8.876,27.1494,8.876,8.875,0,16.1846-6.2657,19.8389-12.0088-3.6543-8.3536-18.7949-41.7676-34.458-47.51-4.6983-2.0889-8.3535-4.1777-8.3535-8.876,0-10.4424,22.9726-39.1572,46.9883-39.1572,18.2734,0,32.8925,32.8916,46.4668,57.9521,6.7871-7.831,15.663-18.2724,15.663-29.7587,0-16.1856,9.92-28.1934,26.627-28.1934,14.6182,0,24.0156,9.3975,24.0156,24.0166,0,23.4941-25.582,45.9443-51.165,65.7842,10.4424,14.0957,21.4062,33.414,35.5029,33.414,8.875,0,13.0518-4.1777,19.8389-10.9648,3.6552-3.6543,5.7431-5.2207,8.876-5.2207a7.44,7.44,0,0,1,7.3095,7.31c0,5.7431-3.1328,9.92-8.3535,16.707-10.9639,14.0967-33.4141,34.458-66.3066,34.458C1335.2051,981.4707,1323.1973,957.9766,1314.3213,940.7471Z"></path><path class="cls-1" d="M1502.2705,858.7783c-4.1767,15.1406-10.9639,41.7676-10.9639,58.9971,0,15.6631,7.8311,21.4062,20.3614,21.4062,10.4414,0,20.8838-9.92,29.2373-16.707,3.6543-3.1328,6.2646-5.2217,9.3974-5.2217a6.4785,6.4785,0,0,1,6.7871,6.2657c0,2.61-1.0439,6.2646-4.1767,10.4414-13.5742,17.7509-48.0322,47.5107-80.4024,47.5107-37.5908,0-53.7753-22.45-53.7753-50.1211,0-33.4141,16.1845-59.5185,16.1845-85.623,0-6.7871-14.0967-2.6114-14.0967-12.0088,0-5.2207,3.1329-15.1407,8.876-15.1407,27.6709,0,53.2539-27.1484,66.8281-49.0771,5.2207-8.3535,9.3975-11.4854,14.0967-11.4854,5.7432,0,8.3535,4.1768,8.3535,8.3536,0,11.4853-7.31,32.8916-7.31,41.7675,0,6.7872,2.0879,10.4414,17.7509,10.4414,4.1768,0,7.31,1.5665,7.31,5.7432,0,10.4414-5.7431,17.751-12.0078,17.751C1511.668,842.0713,1505.9248,846.248,1502.2705,858.7783Z"></path><path class="cls-1" d="M685.4814,939.6553c-11.4863,15.1416-26.1044,25.06-49.0771,26.6269-39.6787,27.6709,3.6553,300.7266-162.3711,300.7266-51.165,0-89.2783-32.37-89.2783-77.27,0-51.1651,43.334-75.1817,79.3584-75.1817,13.5742,0,17.751,2.0879,17.751,6.2647s-2.61,6.2656-6.7872,7.31c-12.0078,3.6543-25.06,17.2295-25.06,32.8916,0,17.752,13.0527,30.8037,31.8477,30.8037,69.9609,0,62.6513-139.3994,87.19-201.5283,5.7422-14.0967,14.0957-22.9726,23.4941-28.7148-18.7959-6.2656-31.8476-10.4424-57.9531-10.4424-29.7588,0-50.6426,18.7959-50.6426,38.1133,0,15.1406,8.875,22.9717,21.9278,22.9717,8.3535,0,12.0078-5.2207,16.1845-5.2207,3.1328,0,5.2217,2.0879,5.2217,5.7431,0,19.3174-25.06,52.7315-61.6074,52.7315-32.37,0-59.5186-24.0166-59.5186-60.5625,0-56.3868,54.2979-89.2784,113.294-89.2784s88.7558,11.4854,115.3828,11.4854c34.9805,0,45.9443-16.707,53.2539-16.707,3.6543,0,5.7432,1.5664,5.7432,5.2216C693.835,921.9043,689.6582,934.4346,685.4814,939.6553Z"></path><path class="cls-1" d="M609.2559,1221.0645c0-33.4141,17.2285-67.35,17.2285-86.1456,0-8.8759-3.1328-9.92-3.1328-16.707,0-11.4863,27.6718-19.3174,57.9531-19.3174,11.4863,0,17.751,4.6993,17.751,13.5743,0,20.8837-16.7071,53.7763-16.7071,88.2343,0,13.5742,7.8311,21.4063,17.2295,21.4063,8.875,0,13.0518-4.1778,19.84-10.9649,3.6543-3.6543,5.7422-5.2207,8.875-5.2207a7.44,7.44,0,0,1,7.3095,7.31c0,5.7432-3.1328,9.92-8.3535,16.707-10.9638,14.0967-33.414,34.458-66.3056,34.458C626.4844,1264.3984,609.2559,1245.0811,609.2559,1221.0645Zm69.4384-220.8457c18.795,0,29.2373,12.0078,29.2373,27.6708,0,20.8838-18.7959,43.334-38.6347,43.334-16.1856,0-29.2383-12.53-29.2383-28.1933C640.0586,1022.1465,658.8545,1000.2188,678.6943,1000.2188Z"></path><path class="cls-1" d="M952.2676,1224.1973c0-31.8477,16.707-52.7315,16.707-73.0938,0-9.9189-4.6992-14.6181-12.53-14.6181-9.92,0-21.4062,8.8759-31.8476,29.2373-10.9639,20.8837-22.9727,60.041-22.9727,85.1015,0,8.875-3.1328,10.9639-10.9638,10.9639-16.1846,0-36.5469,2.61-45.4219,2.61-6.2656,0-10.4424-2.61-10.4424-11.4863,0-30.8027,19.3174-78.8359,19.3174-100.7637,0-9.3984-3.6543-15.663-11.4863-15.663-9.3975,0-24.0157,9.92-36.5459,31.8476-9.92,17.2295-22.45,62.13-22.45,82.4912,0,8.875-3.6543,10.9639-11.4864,10.9639-15.6631,0-36.0244,2.61-43.8554,2.61-6.7871,0-10.9649-2.61-10.9649-11.4863,0-19.3174,21.9287-89.8,21.9287-117.9932,0-8.8759-3.6552-9.92-3.6552-16.707,0-11.4863,28.1933-19.3174,58.4746-19.3174,11.4863,0,17.7519,4.6993,17.7519,13.5743,0,8.3535-4.1767,23.4941-4.1767,23.4941,5.2207-5.7422,32.3691-37.0684,72.0488-37.0684,32.37,0,41.2451,25.0606,42.8115,32.8916,4.1768-4.1767,31.8477-32.8916,69.961-32.8916,30.2812,0,44.3779,12.53,44.3779,35.502,0,22.45-14.6182,48.0332-14.6182,68.917,0,13.5742,7.3086,18.7959,16.707,18.7959,8.875,0,13.0518-4.1778,19.8389-10.9649,3.6553-3.6543,5.7432-5.2207,8.876-5.2207a7.44,7.44,0,0,1,7.31,7.31c0,5.7432-3.1329,9.92-8.3536,16.707-10.9638,14.0967-33.414,34.458-66.3066,34.458C970.541,1264.3984,952.2676,1246.125,952.2676,1224.1973Z"></path><path class="cls-1" d="M1210.7061,1217.41c5.2207-3.6543,8.8759-6.2657,12.0078-6.2657a6.4786,6.4786,0,0,1,6.7871,6.2657c0,5.2207-3.1319,9.3974-11.4854,17.7509-11.4863,11.4864-34.459,30.8037-72.5713,30.8037-49.0771,0-85.1015-21.9277-85.1015-72.0488,0-50.6435,40.7236-96.0654,110.1621-96.0654,35.5019,0,51.6875,15.6631,51.6875,38.1123,0,29.76-34.98,58.4746-87.19,62.6514,0,18.2734,16.707,32.37,36.5468,32.37C1189.3,1230.9844,1202.3525,1223.1533,1210.7061,1217.41Zm-26.627-85.1016c0-7.8311-4.1768-12.0078-12.53-12.0078-15.6631,0-36.5468,25.582-36.5468,56.3857C1164.7617,1170.9434,1184.0791,1144.8389,1184.0791,1132.3086Z"></path><path class="cls-1" d="M629.3,508.5693c0-64.2646-59.2783-100.8281-59.2783-164.5381,0-47.6445,43.7666-83.1005,92.5185-83.1005,45.4278,0,76.4522,18.2822,76.4522,64.2646,0,24.93-15.5117,47.09-38.2256,47.09-14.958,0-27.1465-9.418-27.1465-24.376,0-21.6065,23.2676-22.7139,23.2676-40.9961,0-10.5264-7.7559-17.7276-21.6055-17.7276-19.3906,0-36.5644,13.85-36.5644,45.4278,0,59.2773,68.1426,100.8281,68.1426,195.0078,0,65.9258-47.6446,142.3779-143.4864,142.3779-62.6025,0-108.03-37.1172-108.03-96.95,0-62.0478,58.17-95.8418,100.8281-95.8418,18.8359,0,23.2676,4.4326,23.2676,9.418,0,3.3242-2.77,6.0938-8.31,6.6484-17.7276,2.77-32.6856,18.2823-32.6856,42.6582,0,20.4981,15.5118,36.01,41.55,36.01C607.6943,573.9414,629.3,551.2275,629.3,508.5693Z"></path><path class="cls-1" d="M855.4727,546.1562c3.4238-2.996,6.42-5.1367,8.9873-5.1367a4.9342,4.9342,0,0,1,5.1357,5.1367c0,4.2793-2.14,7.7032-8.56,14.5508-14.123,14.98-35.0947,35.95-76.6084,35.95-40.2295,0-68.4765-17.9756-68.4765-59.0615,0-41.5137,33.3828-78.748,90.3037-78.748,29.1025,0,42.37,12.84,42.37,31.2431,0,24.3946-28.6748,47.9336-71.4727,51.3574,0,14.9795,11.5557,26.5342,32.0987,26.5342C831.0781,567.9824,846.0566,553.8594,855.4727,546.1562Zm-38.09-59.0615c0-6.42-3.4238-9.8437-10.2715-9.8437-12.84,0-29.959,20.9717-29.959,46.2217C801.5469,518.7656,817.3828,497.3662,817.3828,487.0947Z"></path><path class="cls-1" d="M1134.08,478.9629c50.5019,0,68.9043,47.0781,68.9043,83.456a104.72,104.72,0,0,1-3.4239,24.8233c-1.2832,4.2793-2.5673,5.9912-5.9912,5.9912-2.9961,0-4.708-2.9961-7.2763-7.7041-13.2666-23.11-29.1016-39.3731-71.4717-39.3731-49.6455,0-112.9863,50.501-187.0264,50.501-45.7939,0-78.32-17.9756-78.32-59.0615,0-41.5137,33.3818-78.748,90.3027-78.748,29.1036,0,42.37,12.84,42.37,31.2431,0,24.3946-28.6748,47.9336-71.4717,51.3574,0,14.9795,15.4062,31.2422,44.081,31.2422C1019.81,572.69,1073.3066,478.9629,1134.08,478.9629Zm-183.1748,8.1318c0-6.42-3.4239-9.8437-10.2715-9.8437-12.8389,0-29.958,20.9717-29.958,46.2217C935.07,518.7656,950.9053,497.3662,950.9053,487.0947Z"></path><path class="cls-1" d="M255.1621,777.2266c0,11.9834,7.2754,20.5429,18.4033,20.5429,16.2627,0,37.2344-21.3984,49.2178-45.7939,16.2627-33.81,30.8145-100.1465,40.6582-136.5244,2.9951-11.5557,29.53-24.3955,57.7764-24.3955,5.1357,0,8.1318,2.5683,8.1318,6.42,0,4.708-5.1357,9.8437-10.6992,23.539-9.8438,23.5381-27.8184,93.7276-42.7979,167.7676C351.8857,906.4766,325.3506,1005.7676,228.2,1005.7676c-50.0737,0-83.0278-28.6748-83.0278-69.7608,0-43.6543,34.2383-69.333,74.4682-69.333,14.5513,0,21.399,4.28,21.399,8.1319s-2.14,5.5634-6.42,5.5634c-10.2714,0-23.11,9.4161-23.11,26.9629s11.1269,29.53,31.2422,29.53c33.3818,0,60.3447-53.9248,80.46-149.3643-15.4072,24.8223-50.0732,56.9209-83.8838,56.9209-29.53,0-48.79-20.5429-48.79-50.9287,0-46.65,37.2339-104.8554,37.2339-169.48,0-12.4112-7.2754-19.2588-18.8311-19.2588-32.9541,0-65.48,44.9385-65.48,79.6045,0,14.123,8.1318,20.5429,17.1191,20.5429,5.5635,0,10.6992-3.4238,13.6953-3.4238s4.28,1.7119,4.28,4.707c0,12.84-23.1108,43.6543-54.353,43.6543-25.6787,0-44.938-18.831-44.938-48.789,0-72.7569,73.6123-120.2627,139.521-120.2627,41.0859,0,65.48,18.831,65.48,53.0693C284.2646,684.3555,255.1621,731.0049,255.1621,777.2266Z"></path><path class="cls-1" d="M531.6318,779.3662c0,47.9336-30.3867,89.02-83.0283,89.02-37.6621,0-62.0566-21.8271-62.0566-56.0654,0-41.5137,32.9551-83.0273,91.5879-83.0273C509.8047,729.293,531.6318,749.8359,531.6318,779.3662Zm-40.2295,8.9873c-13.2675-5.1347-17.1191-9.8428-17.1191-17.5469,0-10.6992,6.4189-14.123,6.4189-16.6914,0-2.14-1.2841-3.4238-3.8515-3.4238-1.7119,0-5.9912,1.2842-11.9834,5.9922-10.6992,8.56-20.9707,24.3945-20.9707,48.7891,0,19.26,11.1269,31.6709,27.8183,31.6709,17.1192,0,28.2461-17.5469,28.2461-32.5264C499.9609,797.3418,497.3936,790.9219,491.4023,788.3535Z"></path><path class="cls-1" d="M701.9629,834.5762a18.558,18.558,0,0,0,11.9834-4.28c2.9961-2.14,3.8516-3.4238,6.42-3.4238,2.9951,0,4.2793,2.14,4.2793,4.708,0,3.4238-2.14,6.8476-5.1357,10.6992-9.8438,12.84-22.2549,24.3945-44.51,24.3945-33.8105,0-37.6621-26.1064-37.6621-26.1064s-26.1065,26.1064-64.625,26.1064c-21.3984,0-33.81-15.4072-33.81-32.9541,0-26.5342,14.5508-57.7773,14.5508-73.1845,0-7.2754-2.9951-8.1309-2.9951-13.6954,0-9.415,23.11-15.8349,47.9336-15.8349,9.415,0,14.5508,3.8515,14.5508,11.1279,0,19.6865-15.835,48.3613-15.835,79.6035,0,6.42,4.2793,10.6992,10.2715,10.6992,9.415,0,20.1142-7.2753,25.6787-17.5468,9.415-16.6914,14.9785-38.5176,14.9785-54.3535,0-7.2754-2.9951-8.1309-2.9951-13.6954,0-9.415,23.11-15.8349,47.9336-15.8349,9.415,0,14.5508,3.8515,14.5508,11.1279,0,16.69-14.9795,48.7891-14.9795,76.6074C692.5469,829.44,696.8271,834.5762,701.9629,834.5762Z"></path><path class="cls-1" d="M1076.6523,648.8271c8.875-17.7509,19.84-28.7148,40.7237-28.7148,29.7588,0,43.333,17.2285,43.333,27.6709,0,5.2207-3.1319,7.8311-7.8311,7.8311-12.53,0-20.3613,1.5664-30.8037,14.0966C1098.58,698.4258,1053.68,826.34,1040.6279,951.12c-.5224,10.9639-6.2656,15.1406-13.5752,15.1406H975.3662c-5.7432,0-9.3984-2.61-9.92-11.4863-4.1768-65.7842.5215-133.1338-6.7871-189.52h-2.61c-17.23,75.7041-48.5556,223.457-152.4521,223.457-46.9883,0-75.1817-31.8476-75.1817-68.3945,0-38.1133,39.1573-66.8281,58.9971-66.8281,5.2207,0,7.3086,2.61,7.3086,6.2656,0,6.2647-3.6543,10.4414-3.6543,22.4492,0,13.0528,8.876,26.627,30.2813,26.627,46.9882,0,107.5517-127.3906,107.5517-219.8018,0-28.7148-12.53-39.6787-31.3252-39.6787-28.1933,0-59.5195,45.9443-59.5195,88.2334,0,17.23,9.92,25.0606,20.8838,25.0606,6.7871,0,13.0527-4.1768,16.707-4.1768s5.2217,2.0889,5.2217,5.7432c0,15.663-28.1934,53.2539-66.3067,53.2539-31.3251,0-54.82-22.9727-54.82-59.5186,0-88.7568,86.1465-137.833,150.3633-137.833,75.7041,0,97.6319,39.6787,110.1621,95.543,5.7432,25.06,8.3535,68.917,9.3985,100.2422C1045.3262,738.627,1057.335,686.94,1076.6523,648.8271Z"></path><path class="cls-1" d="M1236.4092,908.83c4.1767-3.6543,7.832-6.2647,10.9638-6.2647a6.0181,6.0181,0,0,1,6.2657,6.2647c0,5.2207-2.61,9.3984-10.4414,17.7519-17.23,18.2725-42.8125,43.8555-93.4551,43.8555-49.0772,0-83.5352-21.9277-83.5352-72.0488,0-50.6436,40.7227-96.0655,110.1621-96.0655,35.502,0,51.6866,15.6631,51.6866,38.1123,0,29.76-34.9795,58.4747-87.1895,62.6514,0,18.2735,14.0967,32.37,39.1572,32.37C1206.65,935.457,1224.9238,918.2285,1236.4092,908.83Zm-46.4658-72.0489c0-7.831-4.1768-12.0078-12.53-12.0078-15.6631,0-36.5469,25.5821-36.5469,56.3858C1170.626,875.416,1189.9434,849.3115,1189.9434,836.7812Z"></path><path class="cls-1" d="M1305.3213,928.1475c-14.0967,16.1855-35.5029,40.7236-52.7315,40.7236-19.3173,0-40.2011-21.9277-40.2011-31.3252,0-14.6191,19.84-35.5029,28.7148-35.5029,10.4424,0,14.0967,8.8759,27.1494,8.8759,8.875,0,16.1846-6.2656,19.8389-12.0087-3.6543-8.3536-18.7949-41.7676-34.458-47.51-4.6983-2.0889-8.3535-4.1777-8.3535-8.876,0-10.4424,22.9726-39.1572,46.9883-39.1572,18.2734,0,32.8925,32.8916,46.4668,57.9521,6.7871-7.831,15.663-18.2724,15.663-29.7588,0-16.1855,9.92-28.1933,26.627-28.1933,14.6182,0,24.0156,9.3974,24.0156,24.0166,0,23.4941-25.582,45.9443-51.165,65.7842,10.4424,14.0957,21.4062,33.414,35.5029,33.414,8.875,0,13.0518-4.1777,19.8389-10.9648,3.6552-3.6543,5.7431-5.2207,8.876-5.2207a7.44,7.44,0,0,1,7.3095,7.31c0,5.7431-3.1328,9.92-8.3535,16.707-10.9639,14.0967-33.4141,34.458-66.3066,34.458C1326.2051,968.8711,1314.1973,945.377,1305.3213,928.1475Z"></path><path class="cls-1" d="M1493.2705,846.1787c-4.1767,15.1406-10.9639,41.7676-10.9639,58.9971,0,15.6631,7.8311,21.4062,20.3614,21.4062,10.4414,0,20.8838-9.92,29.2373-16.707,3.6543-3.1328,6.2646-5.2217,9.3974-5.2217a6.4785,6.4785,0,0,1,6.7871,6.2656c0,2.61-1.0439,6.2647-4.1767,10.4415-13.5742,17.7509-48.0322,47.5107-80.4024,47.5107-37.5908,0-53.7753-22.45-53.7753-50.1211,0-33.4141,16.1845-59.5186,16.1845-85.623,0-6.7872-14.0967-2.6114-14.0967-12.0088,0-5.2207,3.1329-15.1407,8.876-15.1407,27.6709,0,53.2539-27.1484,66.8281-49.0771,5.2207-8.3535,9.3975-11.4854,14.0967-11.4854,5.7432,0,8.3535,4.1768,8.3535,8.3536,0,11.4853-7.31,32.8916-7.31,41.7675,0,6.7871,2.0879,10.4414,17.7509,10.4414,4.1768,0,7.31,1.5664,7.31,5.7432,0,10.4414-5.7431,17.751-12.0078,17.751C1502.668,829.4717,1496.9248,833.6484,1493.2705,846.1787Z"></path><path class="cls-1" d="M676.4814,927.0557c-11.4863,15.1416-26.1044,25.0605-49.0771,26.6269-39.6787,27.6709,3.6553,300.7266-162.3711,300.7266-51.165,0-89.2783-32.37-89.2783-77.27,0-51.165,43.334-75.1816,79.3584-75.1816,13.5742,0,17.751,2.0879,17.751,6.2647s-2.61,6.2656-6.7872,7.31c-12.0078,3.6543-25.06,17.2295-25.06,32.8916,0,17.752,13.0527,30.8037,31.8477,30.8037,69.9609,0,62.6513-139.3994,87.19-201.5283,5.7422-14.0967,14.0957-22.9726,23.4941-28.7148-18.7959-6.2656-31.8476-10.4424-57.9531-10.4424-29.7588,0-50.6426,18.7959-50.6426,38.1133,0,15.1406,8.875,22.9717,21.9278,22.9717,8.3535,0,12.0078-5.2208,16.1845-5.2208,3.1328,0,5.2217,2.0879,5.2217,5.7432,0,19.3174-25.06,52.7315-61.6074,52.7315-32.37,0-59.5186-24.0166-59.5186-60.5625,0-56.3868,54.2979-89.2784,113.294-89.2784s88.7558,11.4854,115.3828,11.4854c34.9805,0,45.9443-16.707,53.2539-16.707,3.6543,0,5.7432,1.5664,5.7432,5.2216C684.835,909.3047,680.6582,921.835,676.4814,927.0557Z"></path><path class="cls-1" d="M600.2559,1208.4648c0-33.414,17.2285-67.35,17.2285-86.1455,0-8.8759-3.1328-9.92-3.1328-16.707,0-11.4863,27.6718-19.3174,57.9531-19.3174,11.4863,0,17.751,4.6992,17.751,13.5742,0,20.8838-16.7071,53.7764-16.7071,88.2344,0,13.5742,7.8311,21.4063,17.2295,21.4063,8.875,0,13.0518-4.1778,19.84-10.9649,3.6543-3.6543,5.7422-5.2207,8.875-5.2207a7.44,7.44,0,0,1,7.3095,7.31c0,5.7432-3.1328,9.92-8.3535,16.707-10.9638,14.0967-33.414,34.458-66.3056,34.458C617.4844,1251.7988,600.2559,1232.4814,600.2559,1208.4648Zm69.4384-220.8457c18.795,0,29.2373,12.0079,29.2373,27.6709,0,20.8838-18.7959,43.334-38.6347,43.334-16.1856,0-29.2383-12.53-29.2383-28.1933C631.0586,1009.5469,649.8545,987.6191,669.6943,987.6191Z"></path><path class="cls-1" d="M943.2676,1211.5977c0-31.8477,16.707-52.7315,16.707-73.0938,0-9.9189-4.6992-14.6182-12.53-14.6182-9.92,0-21.4062,8.876-31.8476,29.2373-10.9639,20.8838-22.9727,60.0411-22.9727,85.1016,0,8.875-3.1328,10.9639-10.9638,10.9639-16.1846,0-36.5469,2.61-45.4219,2.61-6.2656,0-10.4424-2.61-10.4424-11.4863,0-30.8027,19.3174-78.8359,19.3174-100.7637,0-9.3984-3.6543-15.6631-11.4863-15.6631-9.3975,0-24.0157,9.92-36.5459,31.8477-9.92,17.2295-22.45,62.13-22.45,82.4912,0,8.875-3.6543,10.9639-11.4864,10.9639-15.6631,0-36.0244,2.61-43.8554,2.61-6.7871,0-10.9649-2.61-10.9649-11.4863,0-19.3174,21.9287-89.8,21.9287-117.9932,0-8.8759-3.6552-9.92-3.6552-16.707,0-11.4863,28.1933-19.3174,58.4746-19.3174,11.4863,0,17.7519,4.6992,17.7519,13.5742,0,8.3536-4.1767,23.4942-4.1767,23.4942,5.2207-5.7422,32.3691-37.0684,72.0488-37.0684,32.37,0,41.2451,25.0606,42.8115,32.8916,4.1768-4.1767,31.8477-32.8916,69.961-32.8916,30.2812,0,44.3779,12.53,44.3779,35.502,0,22.45-14.6182,48.0332-14.6182,68.917,0,13.5742,7.3086,18.7959,16.707,18.7959,8.875,0,13.0518-4.1778,19.8389-10.9649,3.6553-3.6543,5.7432-5.2207,8.876-5.2207a7.44,7.44,0,0,1,7.31,7.31c0,5.7432-3.1329,9.92-8.3536,16.707-10.9638,14.0967-33.414,34.458-66.3066,34.458C961.541,1251.7988,943.2676,1233.5254,943.2676,1211.5977Z"></path><path class="cls-1" d="M1201.7061,1204.8105c5.2207-3.6543,8.8759-6.2656,12.0078-6.2656a6.4786,6.4786,0,0,1,6.7871,6.2656c0,5.2207-3.1319,9.3975-11.4854,17.751-11.4863,11.4864-34.459,30.8037-72.5713,30.8037-49.0771,0-85.1015-21.9277-85.1015-72.0488,0-50.6435,40.7236-96.0654,110.1621-96.0654,35.5019,0,51.6875,15.6631,51.6875,38.1123,0,29.76-34.98,58.4746-87.19,62.6513,0,18.2735,16.707,32.37,36.5468,32.37C1180.3,1218.3848,1193.3525,1210.5537,1201.7061,1204.8105Zm-26.627-85.1015c0-7.8311-4.1768-12.0078-12.53-12.0078-15.6631,0-36.5468,25.582-36.5468,56.3857C1155.7617,1158.3438,1175.0791,1132.2393,1175.0791,1119.709Z"></path><path class="cls-1" d="M620.3,495.97c0-64.2646-59.2783-100.8281-59.2783-164.5381,0-47.6445,43.7666-83.1005,92.5185-83.1005,45.4278,0,76.4522,18.2822,76.4522,64.2646,0,24.93-15.5117,47.09-38.2256,47.09-14.958,0-27.1465-9.4179-27.1465-24.3759,0-21.6065,23.2676-22.7139,23.2676-40.9961,0-10.5264-7.7559-17.7276-21.6055-17.7276-19.3906,0-36.5644,13.85-36.5644,45.4278,0,59.2773,68.1426,100.8281,68.1426,195.0078,0,65.9258-47.6446,142.3779-143.4864,142.3779-62.6025,0-108.03-37.1172-108.03-96.95,0-62.0478,58.17-95.8418,100.8281-95.8418,18.8359,0,23.2676,4.4326,23.2676,9.418,0,3.3242-2.77,6.0937-8.31,6.6484-17.7276,2.77-32.6856,18.2823-32.6856,42.6582,0,20.4981,15.5118,36.01,41.55,36.01C598.6943,561.3418,620.3,538.6279,620.3,495.97Z"></path><path class="cls-1" d="M846.4727,533.5566c3.4238-2.9961,6.42-5.1367,8.9873-5.1367a4.9342,4.9342,0,0,1,5.1357,5.1367c0,4.2793-2.14,7.7032-8.56,14.5508-14.123,14.98-35.0947,35.95-76.6084,35.95-40.2295,0-68.4765-17.9756-68.4765-59.0615,0-41.5137,33.3828-78.7481,90.3037-78.7481,29.1025,0,42.37,12.84,42.37,31.2432,0,24.3945-28.6748,47.9336-71.4727,51.3574,0,14.9795,11.5557,26.5342,32.0987,26.5342C822.0781,555.3828,837.0566,541.26,846.4727,533.5566Zm-38.09-59.0615c0-6.42-3.4238-9.8437-10.2715-9.8437-12.84,0-29.959,20.9716-29.959,46.2216C792.5469,506.166,808.3828,484.7666,808.3828,474.4951Z"></path><path class="cls-1" d="M1125.08,466.3633c50.5019,0,68.9043,47.0781,68.9043,83.456a104.72,104.72,0,0,1-3.4239,24.8233c-1.2832,4.2793-2.5673,5.9912-5.9912,5.9912-2.9961,0-4.708-2.9961-7.2763-7.7041-13.2666-23.11-29.1016-39.3731-71.4717-39.3731-49.6455,0-112.9863,50.501-187.0264,50.501-45.7939,0-78.32-17.9756-78.32-59.0615,0-41.5137,33.3818-78.7481,90.3027-78.7481,29.1036,0,42.37,12.84,42.37,31.2432,0,24.3945-28.6748,47.9336-71.4717,51.3574,0,14.9795,15.4062,31.2422,44.081,31.2422C1010.81,560.0908,1064.3066,466.3633,1125.08,466.3633Zm-183.1748,8.1318c0-6.42-3.4239-9.8437-10.2715-9.8437-12.8389,0-29.958,20.9716-29.958,46.2216C926.07,506.166,941.9053,484.7666,941.9053,474.4951Z"></path><path class="cls-1" d="M246.1621,764.627c0,11.9834,7.2754,20.5429,18.4033,20.5429,16.2627,0,37.2344-21.3984,49.2178-45.7939,16.2627-33.81,30.8145-100.1465,40.6582-136.5244,2.9951-11.5557,29.53-24.3955,57.7764-24.3955,5.1357,0,8.1318,2.5683,8.1318,6.42,0,4.708-5.1357,9.8437-10.6992,23.539-9.8438,23.5381-27.8184,93.7276-42.7979,167.7676C342.8857,893.877,316.3506,993.168,219.2,993.168c-50.0737,0-83.0278-28.6748-83.0278-69.7608,0-43.6543,34.2383-69.333,74.4682-69.333,14.5513,0,21.399,4.28,21.399,8.1319s-2.14,5.5634-6.42,5.5634c-10.2714,0-23.11,9.416-23.11,26.9629s11.1269,29.53,31.2422,29.53c33.3818,0,60.3447-53.9248,80.46-149.3643-15.4072,24.8223-50.0732,56.9209-83.8838,56.9209-29.53,0-48.79-20.5429-48.79-50.9287,0-46.65,37.2339-104.8554,37.2339-169.48,0-12.4112-7.2754-19.2588-18.8311-19.2588-32.9541,0-65.48,44.9384-65.48,79.6045,0,14.123,8.1318,20.5429,17.1191,20.5429,5.5635,0,10.6992-3.4238,13.6953-3.4238s4.28,1.7119,4.28,4.707c0,12.84-23.1108,43.6543-54.353,43.6543-25.6787,0-44.938-18.831-44.938-48.789,0-72.7569,73.6123-120.2627,139.521-120.2627,41.0859,0,65.48,18.831,65.48,53.0693C275.2646,671.7559,246.1621,718.4053,246.1621,764.627Z"></path><path class="cls-1" d="M522.6318,766.7666c0,47.9336-30.3867,89.02-83.0283,89.02-37.6621,0-62.0566-21.8271-62.0566-56.0654,0-41.5137,32.9551-83.0273,91.5879-83.0273C500.8047,716.6934,522.6318,737.2363,522.6318,766.7666Zm-40.2295,8.9873c-13.2675-5.1348-17.1191-9.8428-17.1191-17.5469,0-10.6992,6.4189-14.123,6.4189-16.6914,0-2.14-1.2841-3.4238-3.8515-3.4238-1.7119,0-5.9912,1.2842-11.9834,5.9922-10.6992,8.56-20.9707,24.3945-20.9707,48.789,0,19.26,11.1269,31.6709,27.8183,31.6709,17.1192,0,28.2461-17.5468,28.2461-32.5263C490.9609,784.7422,488.3936,778.3223,482.4023,775.7539Z"></path><path class="cls-1" d="M692.9629,821.9766a18.558,18.558,0,0,0,11.9834-4.28c2.9961-2.14,3.8516-3.4238,6.42-3.4238,2.9951,0,4.2793,2.14,4.2793,4.708,0,3.4238-2.14,6.8476-5.1357,10.6992-9.8438,12.84-22.2549,24.3945-44.51,24.3945-33.8105,0-37.6621-26.1064-37.6621-26.1064s-26.1065,26.1064-64.625,26.1064c-21.3984,0-33.81-15.4072-33.81-32.9541,0-26.5342,14.5508-57.7773,14.5508-73.1846,0-7.2753-2.9951-8.1308-2.9951-13.6953,0-9.415,23.11-15.8349,47.9336-15.8349,9.415,0,14.5508,3.8515,14.5508,11.1279,0,19.6865-15.835,48.3613-15.835,79.6035,0,6.42,4.2793,10.6992,10.2715,10.6992,9.415,0,20.1142-7.2754,25.6787-17.5468,9.415-16.6914,14.9785-38.5176,14.9785-54.3536,0-7.2753-2.9951-8.1308-2.9951-13.6953,0-9.415,23.11-15.8349,47.9336-15.8349,9.415,0,14.5508,3.8515,14.5508,11.1279,0,16.69-14.9795,48.7891-14.9795,76.6074C683.5469,816.84,687.8271,821.9766,692.9629,821.9766Z"></path><path class="cls-2" d="M805.2148,1524.9521A727.8467,727.8467,0,0,1,521.9775,126.8247a727.8436,727.8436,0,0,1,566.4746,1340.9439A723.106,723.106,0,0,1,805.2148,1524.9521Z"></path><path class="cls-3" d="M805.2144,72.1409c400.4924,0,725.1556,324.663,725.1556,725.1554s-324.6632,725.1556-725.1556,725.1556S80.0588,1197.7887,80.0588,797.2963,404.722,72.1409,805.2144,72.1409m0-5a726.7671,726.7671,0,0,0-408.24,124.702A732.2715,732.2715,0,0,0,132.44,513.0853a729.2,729.2,0,0,0,67.3208,692.4513,732.2725,732.2725,0,0,0,321.2426,264.5341,729.2,729.2,0,0,0,692.4513-67.3208,732.274,732.274,0,0,0,264.5341-321.2426,729.2009,729.2009,0,0,0-67.3208-692.4514,732.2755,732.2755,0,0,0-321.2426-264.5338,725.5891,725.5891,0,0,0-284.211-57.3812Z"></path><circle class="cls-4" cx="805.2144" cy="797.2963" r="680.4497"></circle><circle class="cls-5" cx="805.2144" cy="797.2963" r="618.9089"></circle><circle class="cls-6" cx="805.2144" cy="797.2963" r="560.6385"></circle><path class="cls-7" d="M1085.6523,661.4268c8.875-17.751,19.84-28.7149,40.7237-28.7149,29.7588,0,43.333,17.2285,43.333,27.6709,0,5.2207-3.1319,7.8311-7.8311,7.8311-12.53,0-20.3613,1.5664-30.8037,14.0966C1107.58,711.0254,1062.68,838.94,1049.6279,963.72c-.5224,10.9639-6.2656,15.1407-13.5752,15.1407H984.3662c-5.7432,0-9.3984-2.61-9.92-11.4864-4.1768-65.7842.5215-133.1338-6.7871-189.52h-2.61c-17.23,75.7041-48.5556,223.457-152.4521,223.457-46.9883,0-75.1817-31.8476-75.1817-68.3945,0-38.1133,39.1573-66.8281,58.9971-66.8281,5.2207,0,7.3086,2.61,7.3086,6.2656,0,6.2647-3.6543,10.4414-3.6543,22.4492,0,13.0528,8.876,26.627,30.2813,26.627,46.9882,0,107.5517-127.3906,107.5517-219.8018,0-28.7148-12.53-39.6787-31.3252-39.6787-28.1933,0-59.5195,45.9444-59.5195,88.2334,0,17.23,9.92,25.0606,20.8838,25.0606,6.7871,0,13.0527-4.1768,16.707-4.1768s5.2217,2.0889,5.2217,5.7432c0,15.6631-28.1934,53.2539-66.3067,53.2539-31.3251,0-54.82-22.9727-54.82-59.5186,0-88.7568,86.1465-137.833,150.3633-137.833,75.7041,0,97.6319,39.6787,110.1621,95.543,5.7432,25.06,8.3535,68.917,9.3985,100.2422C1054.3262,751.2266,1066.335,699.54,1085.6523,661.4268Z"></path><path class="cls-7" d="M1245.4092,921.43c4.1767-3.6543,7.832-6.2647,10.9638-6.2647a6.0181,6.0181,0,0,1,6.2657,6.2647c0,5.2207-2.61,9.3984-10.4414,17.7519-17.23,18.2725-42.8125,43.8555-93.4551,43.8555-49.0772,0-83.5352-21.9277-83.5352-72.0488,0-50.6436,40.7227-96.0654,110.1621-96.0654,35.502,0,51.6866,15.663,51.6866,38.1123,0,29.76-34.9795,58.4746-87.1895,62.6513,0,18.2735,14.0967,32.37,39.1572,32.37C1215.65,948.0566,1233.9238,930.8281,1245.4092,921.43Zm-46.4658-72.0488c0-7.8311-4.1768-12.0079-12.53-12.0079-15.6631,0-36.5469,25.5821-36.5469,56.3858C1179.626,888.0156,1198.9434,861.9111,1198.9434,849.3809Z"></path><path class="cls-7" d="M1314.3213,940.7471c-14.0967,16.1855-35.5029,40.7236-52.7315,40.7236-19.3173,0-40.2011-21.9277-40.2011-31.3252,0-14.6191,19.84-35.5029,28.7148-35.5029,10.4424,0,14.0967,8.876,27.1494,8.876,8.875,0,16.1846-6.2657,19.8389-12.0088-3.6543-8.3536-18.7949-41.7676-34.458-47.51-4.6983-2.0889-8.3535-4.1777-8.3535-8.876,0-10.4424,22.9726-39.1572,46.9883-39.1572,18.2734,0,32.8925,32.8916,46.4668,57.9521,6.7871-7.831,15.663-18.2724,15.663-29.7587,0-16.1856,9.92-28.1934,26.627-28.1934,14.6182,0,24.0156,9.3975,24.0156,24.0166,0,23.4941-25.582,45.9443-51.165,65.7842,10.4424,14.0957,21.4062,33.414,35.5029,33.414,8.875,0,13.0518-4.1777,19.8389-10.9648,3.6552-3.6543,5.7431-5.2207,8.876-5.2207a7.44,7.44,0,0,1,7.3095,7.31c0,5.7431-3.1328,9.92-8.3535,16.707-10.9639,14.0967-33.4141,34.458-66.3066,34.458C1335.2051,981.4707,1323.1973,957.9766,1314.3213,940.7471Z"></path><path class="cls-7" d="M1502.2705,858.7783c-4.1767,15.1406-10.9639,41.7676-10.9639,58.9971,0,15.6631,7.8311,21.4062,20.3614,21.4062,10.4414,0,20.8838-9.92,29.2373-16.707,3.6543-3.1328,6.2646-5.2217,9.3974-5.2217a6.4785,6.4785,0,0,1,6.7871,6.2657c0,2.61-1.0439,6.2646-4.1767,10.4414-13.5742,17.7509-48.0322,47.5107-80.4024,47.5107-37.5908,0-53.7753-22.45-53.7753-50.1211,0-33.4141,16.1845-59.5185,16.1845-85.623,0-6.7871-14.0967-2.6114-14.0967-12.0088,0-5.2207,3.1329-15.1407,8.876-15.1407,27.6709,0,53.2539-27.1484,66.8281-49.0771,5.2207-8.3535,9.3975-11.4854,14.0967-11.4854,5.7432,0,8.3535,4.1768,8.3535,8.3536,0,11.4853-7.31,32.8916-7.31,41.7675,0,6.7872,2.0879,10.4414,17.7509,10.4414,4.1768,0,7.31,1.5665,7.31,5.7432,0,10.4414-5.7431,17.751-12.0078,17.751C1511.668,842.0713,1505.9248,846.248,1502.2705,858.7783Z"></path><path class="cls-7" d="M685.4814,939.6553c-11.4863,15.1416-26.1044,25.06-49.0771,26.6269-39.6787,27.6709,3.6553,300.7266-162.3711,300.7266-51.165,0-89.2783-32.37-89.2783-77.27,0-51.1651,43.334-75.1817,79.3584-75.1817,13.5742,0,17.751,2.0879,17.751,6.2647s-2.61,6.2656-6.7872,7.31c-12.0078,3.6543-25.06,17.2295-25.06,32.8916,0,17.752,13.0527,30.8037,31.8477,30.8037,69.9609,0,62.6513-139.3994,87.19-201.5283,5.7422-14.0967,14.0957-22.9726,23.4941-28.7148-18.7959-6.2656-31.8476-10.4424-57.9531-10.4424-29.7588,0-50.6426,18.7959-50.6426,38.1133,0,15.1406,8.875,22.9717,21.9278,22.9717,8.3535,0,12.0078-5.2207,16.1845-5.2207,3.1328,0,5.2217,2.0879,5.2217,5.7431,0,19.3174-25.06,52.7315-61.6074,52.7315-32.37,0-59.5186-24.0166-59.5186-60.5625,0-56.3868,54.2979-89.2784,113.294-89.2784s88.7558,11.4854,115.3828,11.4854c34.9805,0,45.9443-16.707,53.2539-16.707,3.6543,0,5.7432,1.5664,5.7432,5.2216C693.835,921.9043,689.6582,934.4346,685.4814,939.6553Z"></path><path class="cls-7" d="M609.2559,1221.0645c0-33.4141,17.2285-67.35,17.2285-86.1456,0-8.8759-3.1328-9.92-3.1328-16.707,0-11.4863,27.6718-19.3174,57.9531-19.3174,11.4863,0,17.751,4.6993,17.751,13.5743,0,20.8837-16.7071,53.7763-16.7071,88.2343,0,13.5742,7.8311,21.4063,17.2295,21.4063,8.875,0,13.0518-4.1778,19.84-10.9649,3.6543-3.6543,5.7422-5.2207,8.875-5.2207a7.44,7.44,0,0,1,7.3095,7.31c0,5.7432-3.1328,9.92-8.3535,16.707-10.9638,14.0967-33.414,34.458-66.3056,34.458C626.4844,1264.3984,609.2559,1245.0811,609.2559,1221.0645Zm69.4384-220.8457c18.795,0,29.2373,12.0078,29.2373,27.6708,0,20.8838-18.7959,43.334-38.6347,43.334-16.1856,0-29.2383-12.53-29.2383-28.1933C640.0586,1022.1465,658.8545,1000.2188,678.6943,1000.2188Z"></path><path class="cls-7" d="M952.2676,1224.1973c0-31.8477,16.707-52.7315,16.707-73.0938,0-9.9189-4.6992-14.6181-12.53-14.6181-9.92,0-21.4062,8.8759-31.8476,29.2373-10.9639,20.8837-22.9727,60.041-22.9727,85.1015,0,8.875-3.1328,10.9639-10.9638,10.9639-16.1846,0-36.5469,2.61-45.4219,2.61-6.2656,0-10.4424-2.61-10.4424-11.4863,0-30.8027,19.3174-78.8359,19.3174-100.7637,0-9.3984-3.6543-15.663-11.4863-15.663-9.3975,0-24.0157,9.92-36.5459,31.8476-9.92,17.2295-22.45,62.13-22.45,82.4912,0,8.875-3.6543,10.9639-11.4864,10.9639-15.6631,0-36.0244,2.61-43.8554,2.61-6.7871,0-10.9649-2.61-10.9649-11.4863,0-19.3174,21.9287-89.8,21.9287-117.9932,0-8.8759-3.6552-9.92-3.6552-16.707,0-11.4863,28.1933-19.3174,58.4746-19.3174,11.4863,0,17.7519,4.6993,17.7519,13.5743,0,8.3535-4.1767,23.4941-4.1767,23.4941,5.2207-5.7422,32.3691-37.0684,72.0488-37.0684,32.37,0,41.2451,25.0606,42.8115,32.8916,4.1768-4.1767,31.8477-32.8916,69.961-32.8916,30.2812,0,44.3779,12.53,44.3779,35.502,0,22.45-14.6182,48.0332-14.6182,68.917,0,13.5742,7.3086,18.7959,16.707,18.7959,8.875,0,13.0518-4.1778,19.8389-10.9649,3.6553-3.6543,5.7432-5.2207,8.876-5.2207a7.44,7.44,0,0,1,7.31,7.31c0,5.7432-3.1329,9.92-8.3536,16.707-10.9638,14.0967-33.414,34.458-66.3066,34.458C970.541,1264.3984,952.2676,1246.125,952.2676,1224.1973Z"></path><path class="cls-7" d="M1210.7061,1217.41c5.2207-3.6543,8.8759-6.2657,12.0078-6.2657a6.4786,6.4786,0,0,1,6.7871,6.2657c0,5.2207-3.1319,9.3974-11.4854,17.7509-11.4863,11.4864-34.459,30.8037-72.5713,30.8037-49.0771,0-85.1015-21.9277-85.1015-72.0488,0-50.6435,40.7236-96.0654,110.1621-96.0654,35.5019,0,51.6875,15.6631,51.6875,38.1123,0,29.76-34.98,58.4746-87.19,62.6514,0,18.2734,16.707,32.37,36.5468,32.37C1189.3,1230.9844,1202.3525,1223.1533,1210.7061,1217.41Zm-26.627-85.1016c0-7.8311-4.1768-12.0078-12.53-12.0078-15.6631,0-36.5468,25.582-36.5468,56.3857C1164.7617,1170.9434,1184.0791,1144.8389,1184.0791,1132.3086Z"></path><path class="cls-7" d="M629.3,508.5693c0-64.2646-59.2783-100.8281-59.2783-164.5381,0-47.6445,43.7666-83.1005,92.5185-83.1005,45.4278,0,76.4522,18.2822,76.4522,64.2646,0,24.93-15.5117,47.09-38.2256,47.09-14.958,0-27.1465-9.418-27.1465-24.376,0-21.6065,23.2676-22.7139,23.2676-40.9961,0-10.5264-7.7559-17.7276-21.6055-17.7276-19.3906,0-36.5644,13.85-36.5644,45.4278,0,59.2773,68.1426,100.8281,68.1426,195.0078,0,65.9258-47.6446,142.3779-143.4864,142.3779-62.6025,0-108.03-37.1172-108.03-96.95,0-62.0478,58.17-95.8418,100.8281-95.8418,18.8359,0,23.2676,4.4326,23.2676,9.418,0,3.3242-2.77,6.0938-8.31,6.6484-17.7276,2.77-32.6856,18.2823-32.6856,42.6582,0,20.4981,15.5118,36.01,41.55,36.01C607.6943,573.9414,629.3,551.2275,629.3,508.5693Z"></path><path class="cls-7" d="M855.4727,546.1562c3.4238-2.996,6.42-5.1367,8.9873-5.1367a4.9342,4.9342,0,0,1,5.1357,5.1367c0,4.2793-2.14,7.7032-8.56,14.5508-14.123,14.98-35.0947,35.95-76.6084,35.95-40.2295,0-68.4765-17.9756-68.4765-59.0615,0-41.5137,33.3828-78.748,90.3037-78.748,29.1025,0,42.37,12.84,42.37,31.2431,0,24.3946-28.6748,47.9336-71.4727,51.3574,0,14.9795,11.5557,26.5342,32.0987,26.5342C831.0781,567.9824,846.0566,553.8594,855.4727,546.1562Zm-38.09-59.0615c0-6.42-3.4238-9.8437-10.2715-9.8437-12.84,0-29.959,20.9717-29.959,46.2217C801.5469,518.7656,817.3828,497.3662,817.3828,487.0947Z"></path><path class="cls-7" d="M1134.08,478.9629c50.5019,0,68.9043,47.0781,68.9043,83.456a104.72,104.72,0,0,1-3.4239,24.8233c-1.2832,4.2793-2.5673,5.9912-5.9912,5.9912-2.9961,0-4.708-2.9961-7.2763-7.7041-13.2666-23.11-29.1016-39.3731-71.4717-39.3731-49.6455,0-112.9863,50.501-187.0264,50.501-45.7939,0-78.32-17.9756-78.32-59.0615,0-41.5137,33.3818-78.748,90.3027-78.748,29.1036,0,42.37,12.84,42.37,31.2431,0,24.3946-28.6748,47.9336-71.4717,51.3574,0,14.9795,15.4062,31.2422,44.081,31.2422C1019.81,572.69,1073.3066,478.9629,1134.08,478.9629Zm-183.1748,8.1318c0-6.42-3.4239-9.8437-10.2715-9.8437-12.8389,0-29.958,20.9717-29.958,46.2217C935.07,518.7656,950.9053,497.3662,950.9053,487.0947Z"></path><path class="cls-7" d="M255.1621,777.2266c0,11.9834,7.2754,20.5429,18.4033,20.5429,16.2627,0,37.2344-21.3984,49.2178-45.7939,16.2627-33.81,30.8145-100.1465,40.6582-136.5244,2.9951-11.5557,29.53-24.3955,57.7764-24.3955,5.1357,0,8.1318,2.5683,8.1318,6.42,0,4.708-5.1357,9.8437-10.6992,23.539-9.8438,23.5381-27.8184,93.7276-42.7979,167.7676C351.8857,906.4766,325.3506,1005.7676,228.2,1005.7676c-50.0737,0-83.0278-28.6748-83.0278-69.7608,0-43.6543,34.2383-69.333,74.4682-69.333,14.5513,0,21.399,4.28,21.399,8.1319s-2.14,5.5634-6.42,5.5634c-10.2714,0-23.11,9.4161-23.11,26.9629s11.1269,29.53,31.2422,29.53c33.3818,0,60.3447-53.9248,80.46-149.3643-15.4072,24.8223-50.0732,56.9209-83.8838,56.9209-29.53,0-48.79-20.5429-48.79-50.9287,0-46.65,37.2339-104.8554,37.2339-169.48,0-12.4112-7.2754-19.2588-18.8311-19.2588-32.9541,0-65.48,44.9385-65.48,79.6045,0,14.123,8.1318,20.5429,17.1191,20.5429,5.5635,0,10.6992-3.4238,13.6953-3.4238s4.28,1.7119,4.28,4.707c0,12.84-23.1108,43.6543-54.353,43.6543-25.6787,0-44.938-18.831-44.938-48.789,0-72.7569,73.6123-120.2627,139.521-120.2627,41.0859,0,65.48,18.831,65.48,53.0693C284.2646,684.3555,255.1621,731.0049,255.1621,777.2266Z"></path><path class="cls-7" d="M531.6318,779.3662c0,47.9336-30.3867,89.02-83.0283,89.02-37.6621,0-62.0566-21.8271-62.0566-56.0654,0-41.5137,32.9551-83.0273,91.5879-83.0273C509.8047,729.293,531.6318,749.8359,531.6318,779.3662Zm-40.2295,8.9873c-13.2675-5.1347-17.1191-9.8428-17.1191-17.5469,0-10.6992,6.4189-14.123,6.4189-16.6914,0-2.14-1.2841-3.4238-3.8515-3.4238-1.7119,0-5.9912,1.2842-11.9834,5.9922-10.6992,8.56-20.9707,24.3945-20.9707,48.7891,0,19.26,11.1269,31.6709,27.8183,31.6709,17.1192,0,28.2461-17.5469,28.2461-32.5264C499.9609,797.3418,497.3936,790.9219,491.4023,788.3535Z"></path><path class="cls-7" d="M701.9629,834.5762a18.558,18.558,0,0,0,11.9834-4.28c2.9961-2.14,3.8516-3.4238,6.42-3.4238,2.9951,0,4.2793,2.14,4.2793,4.708,0,3.4238-2.14,6.8476-5.1357,10.6992-9.8438,12.84-22.2549,24.3945-44.51,24.3945-33.8105,0-37.6621-26.1064-37.6621-26.1064s-26.1065,26.1064-64.625,26.1064c-21.3984,0-33.81-15.4072-33.81-32.9541,0-26.5342,14.5508-57.7773,14.5508-73.1845,0-7.2754-2.9951-8.1309-2.9951-13.6954,0-9.415,23.11-15.8349,47.9336-15.8349,9.415,0,14.5508,3.8515,14.5508,11.1279,0,19.6865-15.835,48.3613-15.835,79.6035,0,6.42,4.2793,10.6992,10.2715,10.6992,9.415,0,20.1142-7.2753,25.6787-17.5468,9.415-16.6914,14.9785-38.5176,14.9785-54.3535,0-7.2754-2.9951-8.1309-2.9951-13.6954,0-9.415,23.11-15.8349,47.9336-15.8349,9.415,0,14.5508,3.8515,14.5508,11.1279,0,16.69-14.9795,48.7891-14.9795,76.6074C692.5469,829.44,696.8271,834.5762,701.9629,834.5762Z"></path><path class="cls-8" d="M1076.6523,648.8271c8.875-17.7509,19.84-28.7148,40.7237-28.7148,29.7588,0,43.333,17.2285,43.333,27.6709,0,5.2207-3.1319,7.8311-7.8311,7.8311-12.53,0-20.3613,1.5664-30.8037,14.0966C1098.58,698.4258,1053.68,826.34,1040.6279,951.12c-.5224,10.9639-6.2656,15.1406-13.5752,15.1406H975.3662c-5.7432,0-9.3984-2.61-9.92-11.4863-4.1768-65.7842.5215-133.1338-6.7871-189.52h-2.61c-17.23,75.7041-48.5556,223.457-152.4521,223.457-46.9883,0-75.1817-31.8476-75.1817-68.3945,0-38.1133,39.1573-66.8281,58.9971-66.8281,5.2207,0,7.3086,2.61,7.3086,6.2656,0,6.2647-3.6543,10.4414-3.6543,22.4492,0,13.0528,8.876,26.627,30.2813,26.627,46.9882,0,107.5517-127.3906,107.5517-219.8018,0-28.7148-12.53-39.6787-31.3252-39.6787-28.1933,0-59.5195,45.9443-59.5195,88.2334,0,17.23,9.92,25.0606,20.8838,25.0606,6.7871,0,13.0527-4.1768,16.707-4.1768s5.2217,2.0889,5.2217,5.7432c0,15.663-28.1934,53.2539-66.3067,53.2539-31.3251,0-54.82-22.9727-54.82-59.5186,0-88.7568,86.1465-137.833,150.3633-137.833,75.7041,0,97.6319,39.6787,110.1621,95.543,5.7432,25.06,8.3535,68.917,9.3985,100.2422C1045.3262,738.627,1057.335,686.94,1076.6523,648.8271Z"></path><path class="cls-8" d="M1236.4092,908.83c4.1767-3.6543,7.832-6.2647,10.9638-6.2647a6.0181,6.0181,0,0,1,6.2657,6.2647c0,5.2207-2.61,9.3984-10.4414,17.7519-17.23,18.2725-42.8125,43.8555-93.4551,43.8555-49.0772,0-83.5352-21.9277-83.5352-72.0488,0-50.6436,40.7227-96.0655,110.1621-96.0655,35.502,0,51.6866,15.6631,51.6866,38.1123,0,29.76-34.9795,58.4747-87.1895,62.6514,0,18.2735,14.0967,32.37,39.1572,32.37C1206.65,935.457,1224.9238,918.2285,1236.4092,908.83Zm-46.4658-72.0489c0-7.831-4.1768-12.0078-12.53-12.0078-15.6631,0-36.5469,25.5821-36.5469,56.3858C1170.626,875.416,1189.9434,849.3115,1189.9434,836.7812Z"></path><path class="cls-8" d="M1305.3213,928.1475c-14.0967,16.1855-35.5029,40.7236-52.7315,40.7236-19.3173,0-40.2011-21.9277-40.2011-31.3252,0-14.6191,19.84-35.5029,28.7148-35.5029,10.4424,0,14.0967,8.8759,27.1494,8.8759,8.875,0,16.1846-6.2656,19.8389-12.0087-3.6543-8.3536-18.7949-41.7676-34.458-47.51-4.6983-2.0889-8.3535-4.1777-8.3535-8.876,0-10.4424,22.9726-39.1572,46.9883-39.1572,18.2734,0,32.8925,32.8916,46.4668,57.9521,6.7871-7.831,15.663-18.2724,15.663-29.7588,0-16.1855,9.92-28.1933,26.627-28.1933,14.6182,0,24.0156,9.3974,24.0156,24.0166,0,23.4941-25.582,45.9443-51.165,65.7842,10.4424,14.0957,21.4062,33.414,35.5029,33.414,8.875,0,13.0518-4.1777,19.8389-10.9648,3.6552-3.6543,5.7431-5.2207,8.876-5.2207a7.44,7.44,0,0,1,7.3095,7.31c0,5.7431-3.1328,9.92-8.3535,16.707-10.9639,14.0967-33.4141,34.458-66.3066,34.458C1326.2051,968.8711,1314.1973,945.377,1305.3213,928.1475Z"></path><path class="cls-8" d="M1493.2705,846.1787c-4.1767,15.1406-10.9639,41.7676-10.9639,58.9971,0,15.6631,7.8311,21.4062,20.3614,21.4062,10.4414,0,20.8838-9.92,29.2373-16.707,3.6543-3.1328,6.2646-5.2217,9.3974-5.2217a6.4785,6.4785,0,0,1,6.7871,6.2656c0,2.61-1.0439,6.2647-4.1767,10.4415-13.5742,17.7509-48.0322,47.5107-80.4024,47.5107-37.5908,0-53.7753-22.45-53.7753-50.1211,0-33.4141,16.1845-59.5186,16.1845-85.623,0-6.7872-14.0967-2.6114-14.0967-12.0088,0-5.2207,3.1329-15.1407,8.876-15.1407,27.6709,0,53.2539-27.1484,66.8281-49.0771,5.2207-8.3535,9.3975-11.4854,14.0967-11.4854,5.7432,0,8.3535,4.1768,8.3535,8.3536,0,11.4853-7.31,32.8916-7.31,41.7675,0,6.7871,2.0879,10.4414,17.7509,10.4414,4.1768,0,7.31,1.5664,7.31,5.7432,0,10.4414-5.7431,17.751-12.0078,17.751C1502.668,829.4717,1496.9248,833.6484,1493.2705,846.1787Z"></path><path class="cls-8" d="M676.4814,927.0557c-11.4863,15.1416-26.1044,25.0605-49.0771,26.6269-39.6787,27.6709,3.6553,300.7266-162.3711,300.7266-51.165,0-89.2783-32.37-89.2783-77.27,0-51.165,43.334-75.1816,79.3584-75.1816,13.5742,0,17.751,2.0879,17.751,6.2647s-2.61,6.2656-6.7872,7.31c-12.0078,3.6543-25.06,17.2295-25.06,32.8916,0,17.752,13.0527,30.8037,31.8477,30.8037,69.9609,0,62.6513-139.3994,87.19-201.5283,5.7422-14.0967,14.0957-22.9726,23.4941-28.7148-18.7959-6.2656-31.8476-10.4424-57.9531-10.4424-29.7588,0-50.6426,18.7959-50.6426,38.1133,0,15.1406,8.875,22.9717,21.9278,22.9717,8.3535,0,12.0078-5.2208,16.1845-5.2208,3.1328,0,5.2217,2.0879,5.2217,5.7432,0,19.3174-25.06,52.7315-61.6074,52.7315-32.37,0-59.5186-24.0166-59.5186-60.5625,0-56.3868,54.2979-89.2784,113.294-89.2784s88.7558,11.4854,115.3828,11.4854c34.9805,0,45.9443-16.707,53.2539-16.707,3.6543,0,5.7432,1.5664,5.7432,5.2216C684.835,909.3047,680.6582,921.835,676.4814,927.0557Z"></path><path class="cls-8" d="M600.2559,1208.4648c0-33.414,17.2285-67.35,17.2285-86.1455,0-8.8759-3.1328-9.92-3.1328-16.707,0-11.4863,27.6718-19.3174,57.9531-19.3174,11.4863,0,17.751,4.6992,17.751,13.5742,0,20.8838-16.7071,53.7764-16.7071,88.2344,0,13.5742,7.8311,21.4063,17.2295,21.4063,8.875,0,13.0518-4.1778,19.84-10.9649,3.6543-3.6543,5.7422-5.2207,8.875-5.2207a7.44,7.44,0,0,1,7.3095,7.31c0,5.7432-3.1328,9.92-8.3535,16.707-10.9638,14.0967-33.414,34.458-66.3056,34.458C617.4844,1251.7988,600.2559,1232.4814,600.2559,1208.4648Zm69.4384-220.8457c18.795,0,29.2373,12.0079,29.2373,27.6709,0,20.8838-18.7959,43.334-38.6347,43.334-16.1856,0-29.2383-12.53-29.2383-28.1933C631.0586,1009.5469,649.8545,987.6191,669.6943,987.6191Z"></path><path class="cls-8" d="M943.2676,1211.5977c0-31.8477,16.707-52.7315,16.707-73.0938,0-9.9189-4.6992-14.6182-12.53-14.6182-9.92,0-21.4062,8.876-31.8476,29.2373-10.9639,20.8838-22.9727,60.0411-22.9727,85.1016,0,8.875-3.1328,10.9639-10.9638,10.9639-16.1846,0-36.5469,2.61-45.4219,2.61-6.2656,0-10.4424-2.61-10.4424-11.4863,0-30.8027,19.3174-78.8359,19.3174-100.7637,0-9.3984-3.6543-15.6631-11.4863-15.6631-9.3975,0-24.0157,9.92-36.5459,31.8477-9.92,17.2295-22.45,62.13-22.45,82.4912,0,8.875-3.6543,10.9639-11.4864,10.9639-15.6631,0-36.0244,2.61-43.8554,2.61-6.7871,0-10.9649-2.61-10.9649-11.4863,0-19.3174,21.9287-89.8,21.9287-117.9932,0-8.8759-3.6552-9.92-3.6552-16.707,0-11.4863,28.1933-19.3174,58.4746-19.3174,11.4863,0,17.7519,4.6992,17.7519,13.5742,0,8.3536-4.1767,23.4942-4.1767,23.4942,5.2207-5.7422,32.3691-37.0684,72.0488-37.0684,32.37,0,41.2451,25.0606,42.8115,32.8916,4.1768-4.1767,31.8477-32.8916,69.961-32.8916,30.2812,0,44.3779,12.53,44.3779,35.502,0,22.45-14.6182,48.0332-14.6182,68.917,0,13.5742,7.3086,18.7959,16.707,18.7959,8.875,0,13.0518-4.1778,19.8389-10.9649,3.6553-3.6543,5.7432-5.2207,8.876-5.2207a7.44,7.44,0,0,1,7.31,7.31c0,5.7432-3.1329,9.92-8.3536,16.707-10.9638,14.0967-33.414,34.458-66.3066,34.458C961.541,1251.7988,943.2676,1233.5254,943.2676,1211.5977Z"></path><path class="cls-8" d="M1201.7061,1204.8105c5.2207-3.6543,8.8759-6.2656,12.0078-6.2656a6.4786,6.4786,0,0,1,6.7871,6.2656c0,5.2207-3.1319,9.3975-11.4854,17.751-11.4863,11.4864-34.459,30.8037-72.5713,30.8037-49.0771,0-85.1015-21.9277-85.1015-72.0488,0-50.6435,40.7236-96.0654,110.1621-96.0654,35.5019,0,51.6875,15.6631,51.6875,38.1123,0,29.76-34.98,58.4746-87.19,62.6513,0,18.2735,16.707,32.37,36.5468,32.37C1180.3,1218.3848,1193.3525,1210.5537,1201.7061,1204.8105Zm-26.627-85.1015c0-7.8311-4.1768-12.0078-12.53-12.0078-15.6631,0-36.5468,25.582-36.5468,56.3857C1155.7617,1158.3438,1175.0791,1132.2393,1175.0791,1119.709Z"></path><path class="cls-8" d="M620.3,495.97c0-64.2646-59.2783-100.8281-59.2783-164.5381,0-47.6445,43.7666-83.1005,92.5185-83.1005,45.4278,0,76.4522,18.2822,76.4522,64.2646,0,24.93-15.5117,47.09-38.2256,47.09-14.958,0-27.1465-9.4179-27.1465-24.3759,0-21.6065,23.2676-22.7139,23.2676-40.9961,0-10.5264-7.7559-17.7276-21.6055-17.7276-19.3906,0-36.5644,13.85-36.5644,45.4278,0,59.2773,68.1426,100.8281,68.1426,195.0078,0,65.9258-47.6446,142.3779-143.4864,142.3779-62.6025,0-108.03-37.1172-108.03-96.95,0-62.0478,58.17-95.8418,100.8281-95.8418,18.8359,0,23.2676,4.4326,23.2676,9.418,0,3.3242-2.77,6.0937-8.31,6.6484-17.7276,2.77-32.6856,18.2823-32.6856,42.6582,0,20.4981,15.5118,36.01,41.55,36.01C598.6943,561.3418,620.3,538.6279,620.3,495.97Z"></path><path class="cls-8" d="M846.4727,533.5566c3.4238-2.9961,6.42-5.1367,8.9873-5.1367a4.9342,4.9342,0,0,1,5.1357,5.1367c0,4.2793-2.14,7.7032-8.56,14.5508-14.123,14.98-35.0947,35.95-76.6084,35.95-40.2295,0-68.4765-17.9756-68.4765-59.0615,0-41.5137,33.3828-78.7481,90.3037-78.7481,29.1025,0,42.37,12.84,42.37,31.2432,0,24.3945-28.6748,47.9336-71.4727,51.3574,0,14.9795,11.5557,26.5342,32.0987,26.5342C822.0781,555.3828,837.0566,541.26,846.4727,533.5566Zm-38.09-59.0615c0-6.42-3.4238-9.8437-10.2715-9.8437-12.84,0-29.959,20.9716-29.959,46.2216C792.5469,506.166,808.3828,484.7666,808.3828,474.4951Z"></path><path class="cls-8" d="M1125.08,466.3633c50.5019,0,68.9043,47.0781,68.9043,83.456a104.72,104.72,0,0,1-3.4239,24.8233c-1.2832,4.2793-2.5673,5.9912-5.9912,5.9912-2.9961,0-4.708-2.9961-7.2763-7.7041-13.2666-23.11-29.1016-39.3731-71.4717-39.3731-49.6455,0-112.9863,50.501-187.0264,50.501-45.7939,0-78.32-17.9756-78.32-59.0615,0-41.5137,33.3818-78.7481,90.3027-78.7481,29.1036,0,42.37,12.84,42.37,31.2432,0,24.3945-28.6748,47.9336-71.4717,51.3574,0,14.9795,15.4062,31.2422,44.081,31.2422C1010.81,560.0908,1064.3066,466.3633,1125.08,466.3633Zm-183.1748,8.1318c0-6.42-3.4239-9.8437-10.2715-9.8437-12.8389,0-29.958,20.9716-29.958,46.2216C926.07,506.166,941.9053,484.7666,941.9053,474.4951Z"></path><path class="cls-8" d="M246.1621,764.627c0,11.9834,7.2754,20.5429,18.4033,20.5429,16.2627,0,37.2344-21.3984,49.2178-45.7939,16.2627-33.81,30.8145-100.1465,40.6582-136.5244,2.9951-11.5557,29.53-24.3955,57.7764-24.3955,5.1357,0,8.1318,2.5683,8.1318,6.42,0,4.708-5.1357,9.8437-10.6992,23.539-9.8438,23.5381-27.8184,93.7276-42.7979,167.7676C342.8857,893.877,316.3506,993.168,219.2,993.168c-50.0737,0-83.0278-28.6748-83.0278-69.7608,0-43.6543,34.2383-69.333,74.4682-69.333,14.5513,0,21.399,4.28,21.399,8.1319s-2.14,5.5634-6.42,5.5634c-10.2714,0-23.11,9.416-23.11,26.9629s11.1269,29.53,31.2422,29.53c33.3818,0,60.3447-53.9248,80.46-149.3643-15.4072,24.8223-50.0732,56.9209-83.8838,56.9209-29.53,0-48.79-20.5429-48.79-50.9287,0-46.65,37.2339-104.8554,37.2339-169.48,0-12.4112-7.2754-19.2588-18.8311-19.2588-32.9541,0-65.48,44.9384-65.48,79.6045,0,14.123,8.1318,20.5429,17.1191,20.5429,5.5635,0,10.6992-3.4238,13.6953-3.4238s4.28,1.7119,4.28,4.707c0,12.84-23.1108,43.6543-54.353,43.6543-25.6787,0-44.938-18.831-44.938-48.789,0-72.7569,73.6123-120.2627,139.521-120.2627,41.0859,0,65.48,18.831,65.48,53.0693C275.2646,671.7559,246.1621,718.4053,246.1621,764.627Z"></path><path class="cls-8" d="M522.6318,766.7666c0,47.9336-30.3867,89.02-83.0283,89.02-37.6621,0-62.0566-21.8271-62.0566-56.0654,0-41.5137,32.9551-83.0273,91.5879-83.0273C500.8047,716.6934,522.6318,737.2363,522.6318,766.7666Zm-40.2295,8.9873c-13.2675-5.1348-17.1191-9.8428-17.1191-17.5469,0-10.6992,6.4189-14.123,6.4189-16.6914,0-2.14-1.2841-3.4238-3.8515-3.4238-1.7119,0-5.9912,1.2842-11.9834,5.9922-10.6992,8.56-20.9707,24.3945-20.9707,48.789,0,19.26,11.1269,31.6709,27.8183,31.6709,17.1192,0,28.2461-17.5468,28.2461-32.5263C490.9609,784.7422,488.3936,778.3223,482.4023,775.7539Z"></path><path class="cls-8" d="M692.9629,821.9766a18.558,18.558,0,0,0,11.9834-4.28c2.9961-2.14,3.8516-3.4238,6.42-3.4238,2.9951,0,4.2793,2.14,4.2793,4.708,0,3.4238-2.14,6.8476-5.1357,10.6992-9.8438,12.84-22.2549,24.3945-44.51,24.3945-33.8105,0-37.6621-26.1064-37.6621-26.1064s-26.1065,26.1064-64.625,26.1064c-21.3984,0-33.81-15.4072-33.81-32.9541,0-26.5342,14.5508-57.7773,14.5508-73.1846,0-7.2753-2.9951-8.1308-2.9951-13.6953,0-9.415,23.11-15.8349,47.9336-15.8349,9.415,0,14.5508,3.8515,14.5508,11.1279,0,19.6865-15.835,48.3613-15.835,79.6035,0,6.42,4.2793,10.6992,10.2715,10.6992,9.415,0,20.1142-7.2754,25.6787-17.5468,9.415-16.6914,14.9785-38.5176,14.9785-54.3536,0-7.2753-2.9951-8.1308-2.9951-13.6953,0-9.415,23.11-15.8349,47.9336-15.8349,9.415,0,14.5508,3.8515,14.5508,11.1279,0,16.69-14.9795,48.7891-14.9795,76.6074C683.5469,816.84,687.8271,821.9766,692.9629,821.9766Z"></path><path class="cls-3" d="M1076.6523,648.8271c8.875-17.7509,19.84-28.7148,40.7237-28.7148,29.7588,0,43.333,17.2285,43.333,27.6709,0,5.2207-3.1319,7.8311-7.8311,7.8311-12.53,0-20.3613,1.5664-30.8037,14.0966C1098.58,698.4258,1053.68,826.34,1040.6279,951.12c-.5224,10.9639-6.2656,15.1406-13.5752,15.1406H975.3662c-5.7432,0-9.3984-2.61-9.92-11.4863-4.1768-65.7842.5215-133.1338-6.7871-189.52h-2.61c-17.23,75.7041-48.5556,223.457-152.4521,223.457-46.9883,0-75.1817-31.8476-75.1817-68.3945,0-38.1133,39.1573-66.8281,58.9971-66.8281,5.2207,0,7.3086,2.61,7.3086,6.2656,0,6.2647-3.6543,10.4414-3.6543,22.4492,0,13.0528,8.876,26.627,30.2813,26.627,46.9882,0,107.5517-127.3906,107.5517-219.8018,0-28.7148-12.53-39.6787-31.3252-39.6787-28.1933,0-59.5195,45.9443-59.5195,88.2334,0,17.23,9.92,25.0606,20.8838,25.0606,6.7871,0,13.0527-4.1768,16.707-4.1768s5.2217,2.0889,5.2217,5.7432c0,15.663-28.1934,53.2539-66.3067,53.2539-31.3251,0-54.82-22.9727-54.82-59.5186,0-88.7568,86.1465-137.833,150.3633-137.833,75.7041,0,97.6319,39.6787,110.1621,95.543,5.7432,25.06,8.3535,68.917,9.3985,100.2422C1045.3262,738.627,1057.335,686.94,1076.6523,648.8271Z"></path><path class="cls-3" d="M1236.4092,908.83c4.1767-3.6543,7.832-6.2647,10.9638-6.2647a6.0181,6.0181,0,0,1,6.2657,6.2647c0,5.2207-2.61,9.3984-10.4414,17.7519-17.23,18.2725-42.8125,43.8555-93.4551,43.8555-49.0772,0-83.5352-21.9277-83.5352-72.0488,0-50.6436,40.7227-96.0655,110.1621-96.0655,35.502,0,51.6866,15.6631,51.6866,38.1123,0,29.76-34.9795,58.4747-87.1895,62.6514,0,18.2735,14.0967,32.37,39.1572,32.37C1206.65,935.457,1224.9238,918.2285,1236.4092,908.83Zm-46.4658-72.0489c0-7.831-4.1768-12.0078-12.53-12.0078-15.6631,0-36.5469,25.5821-36.5469,56.3858C1170.626,875.416,1189.9434,849.3115,1189.9434,836.7812Z"></path><path class="cls-3" d="M1305.3213,928.1475c-14.0967,16.1855-35.5029,40.7236-52.7315,40.7236-19.3173,0-40.2011-21.9277-40.2011-31.3252,0-14.6191,19.84-35.5029,28.7148-35.5029,10.4424,0,14.0967,8.8759,27.1494,8.8759,8.875,0,16.1846-6.2656,19.8389-12.0087-3.6543-8.3536-18.7949-41.7676-34.458-47.51-4.6983-2.0889-8.3535-4.1777-8.3535-8.876,0-10.4424,22.9726-39.1572,46.9883-39.1572,18.2734,0,32.8925,32.8916,46.4668,57.9521,6.7871-7.831,15.663-18.2724,15.663-29.7588,0-16.1855,9.92-28.1933,26.627-28.1933,14.6182,0,24.0156,9.3974,24.0156,24.0166,0,23.4941-25.582,45.9443-51.165,65.7842,10.4424,14.0957,21.4062,33.414,35.5029,33.414,8.875,0,13.0518-4.1777,19.8389-10.9648,3.6552-3.6543,5.7431-5.2207,8.876-5.2207a7.44,7.44,0,0,1,7.3095,7.31c0,5.7431-3.1328,9.92-8.3535,16.707-10.9639,14.0967-33.4141,34.458-66.3066,34.458C1326.2051,968.8711,1314.1973,945.377,1305.3213,928.1475Z"></path><path class="cls-3" d="M1493.2705,846.1787c-4.1767,15.1406-10.9639,41.7676-10.9639,58.9971,0,15.6631,7.8311,21.4062,20.3614,21.4062,10.4414,0,20.8838-9.92,29.2373-16.707,3.6543-3.1328,6.2646-5.2217,9.3974-5.2217a6.4785,6.4785,0,0,1,6.7871,6.2656c0,2.61-1.0439,6.2647-4.1767,10.4415-13.5742,17.7509-48.0322,47.5107-80.4024,47.5107-37.5908,0-53.7753-22.45-53.7753-50.1211,0-33.4141,16.1845-59.5186,16.1845-85.623,0-6.7872-14.0967-2.6114-14.0967-12.0088,0-5.2207,3.1329-15.1407,8.876-15.1407,27.6709,0,53.2539-27.1484,66.8281-49.0771,5.2207-8.3535,9.3975-11.4854,14.0967-11.4854,5.7432,0,8.3535,4.1768,8.3535,8.3536,0,11.4853-7.31,32.8916-7.31,41.7675,0,6.7871,2.0879,10.4414,17.7509,10.4414,4.1768,0,7.31,1.5664,7.31,5.7432,0,10.4414-5.7431,17.751-12.0078,17.751C1502.668,829.4717,1496.9248,833.6484,1493.2705,846.1787Z"></path><path class="cls-3" d="M671.26,927.0557c-11.4864,15.1416-26.1045,25.0605-49.0772,26.6269-39.6787,27.6709,3.6553,300.7266-162.3711,300.7266-51.165,0-89.2783-32.37-89.2783-77.27,0-51.165,43.334-75.1816,79.3584-75.1816,13.5742,0,17.751,2.0879,17.751,6.2647s-2.61,6.2656-6.7871,7.31c-12.0078,3.6543-25.0606,17.2295-25.0606,32.8916,0,17.752,13.0528,30.8037,31.8477,30.8037,69.9609,0,62.6513-139.3994,87.19-201.5283,5.7432-14.0967,14.0967-22.9726,23.4941-28.7148-18.7959-6.2656-31.8476-10.4424-57.9531-10.4424-29.7588,0-50.6426,18.7959-50.6426,38.1133,0,15.1406,8.875,22.9717,21.9278,22.9717,8.3535,0,12.0078-5.2208,16.1846-5.2208,3.1328,0,5.2216,2.0879,5.2216,5.7432,0,19.3174-25.06,52.7315-61.6074,52.7315-32.37,0-59.5185-24.0166-59.5185-60.5625,0-56.3868,54.2978-89.2784,113.2939-89.2784s88.7568,11.4854,115.3828,11.4854c34.9805,0,45.9443-16.707,53.2539-16.707,3.6553,0,5.7432,1.5664,5.7432,5.2216C679.6133,909.3047,675.4365,921.835,671.26,927.0557Z"></path><path class="cls-3" d="M605.4775,1208.4648c0-33.414,17.2286-67.35,17.2286-86.1455,0-8.8759-3.1319-9.92-3.1319-16.707,0-11.4863,27.6709-19.3174,57.9522-19.3174,11.4863,0,17.7509,4.6992,17.7509,13.5742,0,20.8838-16.707,53.7764-16.707,88.2344,0,13.5742,7.832,21.4063,17.23,21.4063,8.875,0,13.0518-4.1778,19.8389-10.9649,3.6552-3.6543,5.7431-5.2207,8.8759-5.2207a7.44,7.44,0,0,1,7.31,7.31c0,5.7432-3.1328,9.92-8.3535,16.707-10.9639,14.0967-33.4141,34.458-66.3066,34.458C622.7061,1251.7988,605.4775,1232.4814,605.4775,1208.4648ZM674.916,987.6191c18.7949,0,29.2373,12.0079,29.2373,27.6709,0,20.8838-18.7959,43.334-38.6357,43.334-16.1846,0-29.2364-12.53-29.2364-28.1933C636.2812,1009.5469,655.0762,987.6191,674.916,987.6191Z"></path><path class="cls-3" d="M948.49,1211.5977c0-31.8477,16.7071-52.7315,16.7071-73.0938,0-9.9189-4.6993-14.6182-12.53-14.6182-9.92,0-21.4063,8.876-31.8477,29.2373-10.9638,20.8838-22.9726,60.0411-22.9726,85.1016,0,8.875-3.1328,10.9639-10.9639,10.9639-16.1846,0-36.5469,2.61-45.4219,2.61-6.2656,0-10.4423-2.61-10.4423-11.4863,0-30.8027,19.3173-78.8359,19.3173-100.7637,0-9.3984-3.6543-15.6631-11.4863-15.6631-9.3975,0-24.0156,9.92-36.5459,31.8477-9.92,17.2295-22.45,62.13-22.45,82.4912,0,8.875-3.6543,10.9639-11.4863,10.9639-15.6631,0-36.0244,2.61-43.8555,2.61-6.7871,0-10.9648-2.61-10.9648-11.4863,0-19.3174,21.9287-89.8,21.9287-117.9932,0-8.8759-3.6553-9.92-3.6553-16.707,0-11.4863,28.1934-19.3174,58.4746-19.3174,11.4863,0,17.752,4.6992,17.752,13.5742,0,8.3536-4.1768,23.4942-4.1768,23.4942,5.2207-5.7422,32.3692-37.0684,72.0488-37.0684,32.37,0,41.2452,25.0606,42.8116,32.8916,4.1767-4.1767,31.8476-32.8916,69.9609-32.8916,30.2813,0,44.3779,12.53,44.3779,35.502,0,22.45-14.6181,48.0332-14.6181,68.917,0,13.5742,7.3086,18.7959,16.707,18.7959,8.875,0,13.0518-4.1778,19.8389-10.9649,3.6552-3.6543,5.7431-5.2207,8.8759-5.2207a7.44,7.44,0,0,1,7.31,7.31c0,5.7432-3.1328,9.92-8.3535,16.707-10.9639,14.0967-33.4141,34.458-66.3066,34.458C966.7637,1251.7988,948.49,1233.5254,948.49,1211.5977Z"></path><path class="cls-3" d="M1206.9277,1204.8105c5.2207-3.6543,8.875-6.2656,12.0078-6.2656a6.4786,6.4786,0,0,1,6.7872,6.2656c0,5.2207-3.1319,9.3975-11.4854,17.751-11.4863,11.4864-34.459,30.8037-72.5713,30.8037-49.0771,0-85.1015-21.9277-85.1015-72.0488,0-50.6435,40.7236-96.0654,110.1621-96.0654,35.5019,0,51.6875,15.6631,51.6875,38.1123,0,29.76-34.98,58.4746-87.19,62.6513,0,18.2735,16.7071,32.37,36.5469,32.37C1185.5215,1218.3848,1198.5742,1210.5537,1206.9277,1204.8105Zm-26.6269-85.1015c0-7.8311-4.1768-12.0078-12.53-12.0078-15.6631,0-36.5469,25.582-36.5469,56.3857C1160.9834,1158.3438,1180.3008,1132.2393,1180.3008,1119.709Z"></path><path class="cls-3" d="M620.3,495.97c0-64.2646-59.2783-100.8281-59.2783-164.5381,0-47.6445,43.7666-83.1005,92.5185-83.1005,45.4278,0,76.4522,18.2822,76.4522,64.2646,0,24.93-15.5117,47.09-38.2256,47.09-14.958,0-27.1465-9.4179-27.1465-24.3759,0-21.6065,23.2676-22.7139,23.2676-40.9961,0-10.5264-7.7559-17.7276-21.6055-17.7276-19.3906,0-36.5644,13.85-36.5644,45.4278,0,59.2773,68.1426,100.8281,68.1426,195.0078,0,65.9258-47.6446,142.3779-143.4864,142.3779-62.6025,0-108.03-37.1172-108.03-96.95,0-62.0478,58.17-95.8418,100.8281-95.8418,18.8359,0,23.2676,4.4326,23.2676,9.418,0,3.3242-2.77,6.0937-8.31,6.6484-17.7276,2.77-32.6856,18.2823-32.6856,42.6582,0,20.4981,15.5118,36.01,41.55,36.01C598.6943,561.3418,620.3,538.6279,620.3,495.97Z"></path><path class="cls-3" d="M846.4727,533.5566c3.4238-2.9961,6.42-5.1367,8.9873-5.1367a4.9342,4.9342,0,0,1,5.1357,5.1367c0,4.2793-2.14,7.7032-8.56,14.5508-14.123,14.98-35.0947,35.95-76.6084,35.95-40.2295,0-68.4765-17.9756-68.4765-59.0615,0-41.5137,33.3828-78.7481,90.3037-78.7481,29.1025,0,42.37,12.84,42.37,31.2432,0,24.3945-28.6748,47.9336-71.4727,51.3574,0,14.9795,11.5557,26.5342,32.0987,26.5342C822.0781,555.3828,837.0566,541.26,846.4727,533.5566Zm-38.09-59.0615c0-6.42-3.4238-9.8437-10.2715-9.8437-12.84,0-29.959,20.9716-29.959,46.2216C792.5469,506.166,808.3828,484.7666,808.3828,474.4951Z"></path><path class="cls-3" d="M1125.08,466.3633c50.5019,0,68.9043,47.0781,68.9043,83.456a104.72,104.72,0,0,1-3.4239,24.8233c-1.2832,4.2793-2.5673,5.9912-5.9912,5.9912-2.9961,0-4.708-2.9961-7.2763-7.7041-13.2666-23.11-29.1016-39.3731-71.4717-39.3731-49.6455,0-112.9863,50.501-187.0264,50.501-45.7939,0-78.32-17.9756-78.32-59.0615,0-41.5137,33.3818-78.7481,90.3027-78.7481,29.1036,0,42.37,12.84,42.37,31.2432,0,24.3945-28.6748,47.9336-71.4717,51.3574,0,14.9795,15.4062,31.2422,44.081,31.2422C1010.81,560.0908,1064.3066,466.3633,1125.08,466.3633Zm-183.1748,8.1318c0-6.42-3.4239-9.8437-10.2715-9.8437-12.8389,0-29.958,20.9716-29.958,46.2216C926.07,506.166,941.9053,484.7666,941.9053,474.4951Z"></path><path class="cls-3" d="M246.1621,764.627c0,11.9834,7.2754,20.5429,18.4033,20.5429,16.2627,0,37.2344-21.3984,49.2178-45.7939,16.2627-33.81,30.8145-100.1465,40.6582-136.5244,2.9951-11.5557,29.53-24.3955,57.7764-24.3955,5.1357,0,8.1318,2.5683,8.1318,6.42,0,4.708-5.1357,9.8437-10.6992,23.539-9.8438,23.5381-27.8184,93.7276-42.7979,167.7676C342.8857,893.877,316.3506,993.168,219.2,993.168c-50.0737,0-83.0278-28.6748-83.0278-69.7608,0-43.6543,34.2383-69.333,74.4682-69.333,14.5513,0,21.399,4.28,21.399,8.1319s-2.14,5.5634-6.42,5.5634c-10.2714,0-23.11,9.416-23.11,26.9629s11.1269,29.53,31.2422,29.53c33.3818,0,60.3447-53.9248,80.46-149.3643-15.4072,24.8223-50.0732,56.9209-83.8838,56.9209-29.53,0-48.79-20.5429-48.79-50.9287,0-46.65,37.2339-104.8554,37.2339-169.48,0-12.4112-7.2754-19.2588-18.8311-19.2588-32.9541,0-65.48,44.9384-65.48,79.6045,0,14.123,8.1318,20.5429,17.1191,20.5429,5.5635,0,10.6992-3.4238,13.6953-3.4238s4.28,1.7119,4.28,4.707c0,12.84-23.1108,43.6543-54.353,43.6543-25.6787,0-44.938-18.831-44.938-48.789,0-72.7569,73.6123-120.2627,139.521-120.2627,41.0859,0,65.48,18.831,65.48,53.0693C275.2646,671.7559,246.1621,718.4053,246.1621,764.627Z"></path><path class="cls-3" d="M522.6318,766.7666c0,47.9336-30.3867,89.02-83.0283,89.02-37.6621,0-62.0566-21.8271-62.0566-56.0654,0-41.5137,32.9551-83.0273,91.5879-83.0273C500.8047,716.6934,522.6318,737.2363,522.6318,766.7666Zm-40.2295,8.9873c-13.2675-5.1348-17.1191-9.8428-17.1191-17.5469,0-10.6992,6.4189-14.123,6.4189-16.6914,0-2.14-1.2841-3.4238-3.8515-3.4238-1.7119,0-5.9912,1.2842-11.9834,5.9922-10.6992,8.56-20.9707,24.3945-20.9707,48.789,0,19.26,11.1269,31.6709,27.8183,31.6709,17.1192,0,28.2461-17.5468,28.2461-32.5263C490.9609,784.7422,488.3936,778.3223,482.4023,775.7539Z"></path><path class="cls-3" d="M692.9629,821.9766a18.558,18.558,0,0,0,11.9834-4.28c2.9961-2.14,3.8516-3.4238,6.42-3.4238,2.9951,0,4.2793,2.14,4.2793,4.708,0,3.4238-2.14,6.8476-5.1357,10.6992-9.8438,12.84-22.2549,24.3945-44.51,24.3945-33.8105,0-37.6621-26.1064-37.6621-26.1064s-26.1065,26.1064-64.625,26.1064c-21.3984,0-33.81-15.4072-33.81-32.9541,0-26.5342,14.5508-57.7773,14.5508-73.1846,0-7.2753-2.9951-8.1308-2.9951-13.6953,0-9.415,23.11-15.8349,47.9336-15.8349,9.415,0,14.5508,3.8515,14.5508,11.1279,0,19.6865-15.835,48.3613-15.835,79.6035,0,6.42,4.2793,10.6992,10.2715,10.6992,9.415,0,20.1142-7.2754,25.6787-17.5468,9.415-16.6914,14.9785-38.5176,14.9785-54.3536,0-7.2753-2.9951-8.1308-2.9951-13.6953,0-9.415,23.11-15.8349,47.9336-15.8349,9.415,0,14.5508,3.8515,14.5508,11.1279,0,16.69-14.9795,48.7891-14.9795,76.6074C683.5469,816.84,687.8271,821.9766,692.9629,821.9766Z"></path></svg> 